HIERARCHY
ROOT hip
{
	OFFSET 0.000000 0.000000 0.000000 
	CHANNELS 6 Xposition Yposition Zposition Xrotation Zrotation Yrotation
	JOINT abdomen
	{
		OFFSET 0.000000 3.402643 0.000000 
		CHANNELS 3 Xrotation Zrotation Yrotation
		JOINT chest
		{
			OFFSET 0.000000 8.438565 -0.680529 
			CHANNELS 3 Xrotation Zrotation Yrotation
			JOINT neck
			{
				OFFSET 0.000000 10.207942 -0.272212 
				CHANNELS 3 Xrotation Zrotation Yrotation
				JOINT head
				{
					OFFSET 0.000000 3.130431 0.000000 
					CHANNELS 3 Xrotation Zrotation Yrotation
					End Site
					{
						OFFSET 0.000000 3.130435 0.000000 
					}
				}
			}
			JOINT lCollar
			{
				OFFSET 3.470700 6.669187 -0.816635 
				CHANNELS 3 Yrotation Zrotation Xrotation
				JOINT lShldr
				{
					OFFSET 3.198488 0.000000 0.000000 
					CHANNELS 3 Zrotation Yrotation Xrotation
					JOINT lForeArm
					{
						OFFSET 10.139888 0.000000 0.000000 
						CHANNELS 3 Yrotation Zrotation Xrotation
						JOINT lHand
						{
							OFFSET 8.370511 0.000000 0.000000 
							CHANNELS 3 Zrotation Yrotation Xrotation
							End Site
							{
								OFFSET 4.083176 0.000000 0.000000 
							}
						}
					}
				}
			}
			JOINT rCollar
			{
				OFFSET -3.470700 6.669187 -0.816635 
				CHANNELS 3 Yrotation Zrotation Xrotation
				JOINT rShldr
				{
					OFFSET -3.198488 0.000000 0.000000 
					CHANNELS 3 Zrotation Yrotation Xrotation
					JOINT rForeArm
					{
						OFFSET -10.139888 0.000000 0.000000 
						CHANNELS 3 Yrotation Zrotation Xrotation
						JOINT rHand
						{
							OFFSET -8.370511 0.000000 0.000000 
							CHANNELS 3 Zrotation Yrotation Xrotation
							End Site
							{
								OFFSET -4.083176 0.000000 0.000000 
							}
						}
					}
				}
			}
		}
	}
	JOINT lThigh
	{
		OFFSET 5.308129 -1.633274 1.361059 
		CHANNELS 3 Xrotation Zrotation Yrotation
		JOINT lShin
		{
			OFFSET -2.041588 -20.007561 0.000000 
			CHANNELS 3 Xrotation Zrotation Yrotation
			JOINT lFoot
			{
				OFFSET 0.000000 -19.190928 -1.224953 
				CHANNELS 3 Xrotation Yrotation Zrotation
				End Site
				{
					OFFSET 0.000000 -2.449906 4.627600 
				}
			}
		}
	}
	JOINT rThigh
	{
		OFFSET -5.308129 -1.633274 1.361059 
		CHANNELS 3 Xrotation Zrotation Yrotation
		JOINT rShin
		{
			OFFSET 2.041588 -20.007561 0.000000 
			CHANNELS 3 Xrotation Zrotation Yrotation
			JOINT rFoot
			{
				OFFSET 0.000000 -19.190928 -1.224953 
				CHANNELS 3 Xrotation Yrotation Zrotation
				End Site
				{
					OFFSET 0.000000 -2.449906 4.627600 
				}
			}
		}
	}
}
MOTION
Frames: 11
Frame Time: 0.033333
28.104296 43.446320 37.558525 -4.581836 -5.519523 -53.054626 -25.458981 0.000000 -0.009766 39.152306 3.273479 -0.761026 5.321861 -12.964120 26.758360 -15.996433 4.791806 22.592518 -5.931250 -15.212621 12.436381 -53.967598 -36.552456 23.803823 -68.601997 4.621423 -22.555006 14.707001 -30.551741 -4.627308 16.679668 7.782506 21.888838 65.311951 58.439987 53.219166 29.044441 -5.779532 -37.444481 -29.005365 47.447495 -14.829071 -23.286020 18.608393 6.809132 28.092894 1.942160 7.711244 5.715148 -0.638179 -13.758373 -7.811446 -17.357992 -11.538064 47.987247 4.003689 -16.729351 -24.160318 -3.930694 14.147764 
28.082323 43.436150 37.510799 -4.582520 -5.607133 -53.096470 -25.458981 0.000000 -0.009766 39.062252 3.291920 -0.886378 5.584797 -12.669569 26.752941 -15.925853 4.628391 22.789055 -6.094892 -15.129496 12.716240 -53.752556 -36.594196 23.136286 -68.908897 4.741087 -22.312136 14.213543 -30.095505 -4.355021 16.901615 7.565003 22.217136 65.214523 58.597786 52.864906 29.382664 -5.859021 -37.436386 -29.195808 47.108505 -14.927640 -23.108717 18.675230 6.680033 27.855011 1.971785 7.928448 5.885267 -0.739757 -13.894475 -7.773199 -17.264254 -11.679570 48.007504 3.964800 -16.695742 -24.315912 -3.901141 14.146648 
28.108770 43.407669 37.473694 -4.552855 -5.578158 -53.101646 -25.458981 0.000000 -0.009766 39.037632 3.354433 -0.751460 5.538501 -12.724043 26.714256 -15.634672 4.863862 23.170631 -6.056985 -14.970801 12.675777 -54.001717 -36.908318 20.861893 -68.805878 2.464320 -22.565960 13.062071 -30.356560 -3.657162 16.830673 7.379864 22.085600 65.139938 58.557911 52.022980 29.843170 -5.509727 -37.829266 -27.939705 47.267815 -13.150729 -23.420658 18.723690 6.192190 28.123995 1.815191 8.021997 5.867294 -0.481418 -13.977343 -7.958640 -17.487787 -12.017517 48.292789 4.078677 -16.113026 -24.464378 -3.928019 13.858177 
28.004456 43.366581 37.292858 -5.063828 -5.661554 -52.116856 -25.458981 0.000000 -0.009766 39.262638 3.166242 -0.450250 4.700320 -12.656629 25.845116 -14.833407 5.086119 22.596367 -5.640125 -15.059314 11.856813 -54.682171 -34.820709 19.841137 -69.297836 -0.242784 -21.632511 12.782668 -31.365652 -3.587366 16.527489 6.759778 21.635817 66.863762 57.326694 53.703754 30.362476 -4.911032 -38.541691 -26.467264 47.597656 -11.372777 -23.138340 18.217001 5.266873 27.507036 1.776309 7.950295 6.412945 -0.338520 -14.110301 -7.548285 -17.369041 -11.994879 48.677444 4.099637 -17.111971 -24.664442 -4.063718 14.046520 
27.911533 43.347054 37.137848 -5.494958 -5.589594 -51.221619 -25.458981 0.000000 -0.009766 39.415737 2.870391 -0.119366 4.114717 -12.534633 25.184662 -14.708496 5.310413 21.787983 -5.358526 -15.390863 11.525025 -54.941422 -32.816071 20.821165 -69.730904 -0.541561 -20.640755 13.873096 -32.351082 -4.038520 16.305626 6.308389 21.502710 67.897820 56.323509 55.435478 30.733109 -4.531855 -38.691589 -26.040413 47.447933 -11.132832 -22.782944 17.724407 4.745600 26.599598 1.693793 7.886466 6.989787 -0.415256 -14.136580 -7.312479 -17.227341 -11.482707 48.948792 4.323126 -18.468851 -24.806856 -4.169055 14.400469 
27.786633 43.318169 37.022713 -6.015383 -5.623363 -50.258945 -25.458981 0.000000 -0.009766 39.916683 2.445037 0.232736 3.189443 -11.753078 24.468233 -14.881985 5.046821 21.141897 -5.402592 -15.615048 11.784027 -55.006569 -31.090822 21.248474 -70.219177 -0.765512 -19.707682 15.343144 -33.121803 -4.622942 15.679331 5.783152 20.911875 69.864357 55.247299 58.388855 30.626528 -3.929690 -39.369759 -26.141968 47.442482 -11.176758 -22.273476 17.185812 4.970737 25.819807 1.981733 7.031325 7.418939 -0.426563 -14.149410 -6.717722 -17.182112 -11.416370 49.126110 4.403980 -19.517815 -24.996342 -4.314793 14.775232 
27.706326 43.272190 36.880116 -6.465994 -5.550628 -49.323215 -25.458981 0.000000 -0.009766 40.527031 2.159660 0.443882 2.182297 -11.237564 23.701281 -16.025112 4.733485 20.402184 -5.304417 -16.030790 11.770020 -54.998707 -29.386824 21.727280 -69.871513 -0.814326 -19.934870 15.548826 -34.556168 -4.877517 15.668562 5.361548 21.000181 71.466118 55.004150 61.241894 29.621321 -3.581843 -41.138420 -25.171864 47.655689 -10.786730 -22.041103 16.738371 5.096164 25.157526 2.048803 6.299973 7.860386 -0.513428 -14.072339 -6.543109 -17.166353 -11.015041 49.584663 4.669825 -20.710384 -25.205494 -4.443751 15.137227 
27.668938 43.197334 36.732635 -6.896660 -5.458506 -48.481625 -25.458981 0.000000 -0.009766 41.272114 1.816567 0.556556 0.941569 -10.672658 22.894361 -18.175800 4.377465 19.631184 -5.336721 -16.446707 11.900190 -55.541672 -28.338224 22.195055 -68.095459 -0.498905 -20.659212 15.437153 -36.103466 -5.037062 16.003244 5.339990 20.992451 74.007278 55.528919 65.486717 26.049105 -2.769849 -44.346951 -23.971714 48.320789 -10.393672 -22.026209 16.343231 5.433811 24.769403 2.127958 5.359219 8.256689 -0.549803 -13.931443 -6.571547 -17.359127 -10.761162 50.281750 4.969964 -21.539919 -25.463661 -4.555434 15.398139 
27.651279 43.095623 36.566486 -7.248747 -5.367170 -47.883060 -25.458981 0.000000 -0.009766 41.999622 1.516026 0.823117 -1.158095 -10.187149 22.159286 -19.778763 4.161985 18.788708 -5.497604 -16.720566 12.214454 -56.111530 -27.947325 22.698738 -65.645241 0.087466 -23.077606 15.139473 -36.974773 -5.041198 16.469097 5.669733 20.760675 76.847336 56.050663 70.969666 21.594555 -1.721111 -49.102615 -20.569471 48.225368 -8.787986 -22.268192 16.146294 5.010887 24.780485 1.913052 5.198350 8.556624 -0.605363 -13.902341 -6.894725 -17.567181 -10.731915 51.242714 5.039887 -21.954473 -25.842678 -4.681710 15.536695 
27.734846 42.973576 36.417496 -7.452149 -5.151668 -48.038109 -25.458981 0.000000 -0.009766 42.628967 1.214385 1.269907 -3.756353 -9.778699 21.801060 -20.930325 3.924526 18.298008 -5.871925 -17.008024 12.536581 -57.017899 -28.597641 23.317060 -61.641132 1.498811 -26.895596 14.281614 -37.177727 -4.746438 17.670496 6.322771 20.939604 78.919670 57.342171 75.883286 16.575527 -0.439358 -54.588779 -17.727304 46.494518 -7.187192 -22.846455 15.962777 4.055866 25.227121 1.708251 6.179060 8.745773 -0.630246 -14.102772 -8.066322 -17.889677 -10.018077 52.589539 5.210048 -22.064877 -26.196638 -4.742915 15.534230 
27.789198 42.820602 36.364323 -7.914676 -5.281528 -48.818027 -25.458981 0.000000 -0.009766 43.285828 0.955306 1.908556 -6.274218 -9.737750 21.991859 -22.129730 4.197353 18.101074 -6.563778 -17.137436 12.890350 -57.911522 -30.333471 24.440067 -56.614250 3.809733 -32.542923 13.767904 -35.242664 -4.332765 20.323278 7.313752 22.061213 80.016716 59.787895 78.845993 10.347196 1.043998 -60.443527 -14.080171 44.146065 -5.276184 -22.958660 15.986068 3.459706 26.337122 1.600522 7.307313 8.446669 -0.625181 -14.501921 -8.905161 -18.081476 -9.455626 53.944870 4.755819 -21.632479 -26.635658 -4.832087 15.559652 
